<?xml version="1.0" encoding="UTF-8" standalone="no"?>
<!-- Created with Inkscape (http://www.inkscape.org/) -->

<svg
   width="1200"
   height="630"
   viewBox="0 0 1200 630"
   version="1.1"
   id="svg5"
   inkscape:version="1.3 (0e150ed6c4, 2023-07-21)"
   sodipodi:docname="starforged-opengraph-template.svg"
   xml:space="preserve"
   inkscape:export-filename="opengraph-default.png"
   inkscape:export-xdpi="96"
   inkscape:export-ydpi="96"
   xmlns:inkscape="http://www.inkscape.org/namespaces/inkscape"
   xmlns:sodipodi="http://sodipodi.sourceforge.net/DTD/sodipodi-0.dtd"
   xmlns="http://www.w3.org/2000/svg"
   xmlns:svg="http://www.w3.org/2000/svg"><sodipodi:namedview
     id="namedview7"
     pagecolor="#ffffff"
     bordercolor="#000000"
     borderopacity="0.25"
     inkscape:showpageshadow="2"
     inkscape:pageopacity="0.0"
     inkscape:pagecheckerboard="0"
     inkscape:deskcolor="#d1d1d1"
     inkscape:document-units="px"
     showgrid="false"
     showborder="true"
     inkscape:zoom="0.49689758"
     inkscape:cx="403.50368"
     inkscape:cy="135.84288"
     inkscape:window-width="1500"
     inkscape:window-height="931"
     inkscape:window-x="0"
     inkscape:window-y="0"
     inkscape:window-maximized="1"
     inkscape:current-layer="layer1"
     showguides="false" /><defs
     id="defs2"><clipPath
       clipPathUnits="userSpaceOnUse"
       id="clipPath1585"><rect
         style="fill:#b2465c;fill-opacity:1;stroke-width:32.914;stroke-linecap:round;stroke-linejoin:round;stroke-dasharray:none"
         id="rect1587"
         width="1200"
         height="630"
         x="0"
         y="0" /></clipPath><clipPath
       clipPathUnits="userSpaceOnUse"
       id="clipPath1821"><rect
         style="fill:#3f3f46;fill-opacity:1;stroke-width:29.6042;stroke-linecap:round;stroke-linejoin:round;stroke-dasharray:none"
         id="rect1823"
         x="0"
         y="0"
         height="630"
         width="1200" /></clipPath><clipPath
       clipPathUnits="userSpaceOnUse"
       id="clipPath1825"><rect
         style="fill:#3f3f46;fill-opacity:1;stroke-width:29.6042;stroke-linecap:round;stroke-linejoin:round;stroke-dasharray:none"
         id="rect1827"
         x="-1200"
         y="-532.29999"
         height="630"
         width="1200"
         transform="scale(-1)" /></clipPath><clipPath
       clipPathUnits="userSpaceOnUse"
       id="clipPath1829"><rect
         style="fill:#3f3f46;fill-opacity:1;stroke-width:29.6042;stroke-linecap:round;stroke-linejoin:round;stroke-dasharray:none"
         id="rect1831"
         x="0"
         y="-97.900002"
         height="630"
         width="1200" /></clipPath></defs><g
     inkscape:label="Layer 1"
     inkscape:groupmode="layer"
     id="layer1"><rect
       style="fill:#334155;stroke:none;stroke-width:0;stroke-linejoin:round;stroke-dasharray:none;fill-opacity:1"
       id="rect1"
       width="1200"
       height="630"
       x="0"
       y="0" /><text
       xml:space="preserve"
       style="font-style:normal;font-variant:normal;font-weight:normal;font-stretch:normal;font-size:128px;font-family:'Source Han Sans KR';-inkscape-font-specification:'Source Han Sans KR';fill:#ffffff;fill-opacity:1;stroke-width:2.88378;stroke-linecap:round;stroke-linejoin:round"
       x="390.9761"
       y="319.2818"
       id="text4181"><tspan
         sodipodi:role="line"
         id="tspan4179"
         x="390.9761"
         y="319.2818"
         style="font-style:normal;font-variant:normal;font-weight:normal;font-stretch:normal;font-size:128px;font-family:'Bebas Neue';-inkscape-font-specification:'Bebas Neue';fill:#ffffff;fill-opacity:1">Crew Link</tspan></text><text
       xml:space="preserve"
       style="font-style:normal;font-variant:normal;font-weight:normal;font-stretch:normal;font-size:64px;font-family:'Source Han Sans KR';-inkscape-font-specification:'Source Han Sans KR';fill:#ffffff;fill-opacity:1;stroke-width:2.88378;stroke-linecap:round;stroke-linejoin:round"
       x="443.45609"
       y="413.86899"
       id="text1961"><tspan
         sodipodi:role="line"
         id="tspan1959"
         x="443.45609"
         y="413.86899"
         style="font-style:normal;font-variant:normal;font-weight:normal;font-stretch:normal;font-size:64px;font-family:'Bebas Neue';-inkscape-font-specification:'Bebas Neue';fill:#ffffff;fill-opacity:1">Join your Crew</tspan></text><text
       xml:space="preserve"
       style="font-style:normal;font-variant:normal;font-weight:normal;font-stretch:normal;font-size:42.6667px;font-family:'Source Han Sans KR';-inkscape-font-specification:'Source Han Sans KR';fill:#d4d4d8;fill-opacity:1;stroke-width:2.88378;stroke-linecap:round;stroke-linejoin:round"
       x="317.75977"
       y="509.51526"
       id="text2190"><tspan
         sodipodi:role="line"
         id="tspan2188"
         x="317.75977"
         y="509.51526"
         style="font-style:normal;font-variant:normal;font-weight:normal;font-stretch:normal;font-size:42.6667px;font-family:'Bebas Neue';-inkscape-font-specification:'Bebas Neue';fill:#e2e8f0;fill-opacity:1">starforged-crew-link.scottbenton.dev</tspan></text><g
       id="g39"
       transform="matrix(0,-1.2073,1.2073,0,513.09395,242.60982)"><g
         id="g40"
         transform="matrix(1.6777316,0,0,1.6777316,-90.837557,-7.6486261)"><g
           id="g41"
           transform="rotate(-90,100.72514,47.506731)"><path
             id="path38-1"
             clip-path="none"
             style="fill:#ca8a04;stroke:#ca8a04;stroke-width:2.76919;stroke-linejoin:round;stroke-dasharray:none;stroke-dashoffset:4.4"
             d="m 126.53638,41.472929 -10.85955,5.934059 -10.85955,-5.934059 V 29.604784 l 10.85955,-5.934074 10.85955,5.934074 z" /><path
             id="path38-1-2"
             clip-path="none"
             style="fill:#ca8a04;stroke:#ca8a04;stroke-width:2.76919;stroke-linejoin:round;stroke-dasharray:none;stroke-dashoffset:4.4"
             d="M 96.717781,41.472929 85.858226,47.406988 74.998673,41.472929 V 29.604784 l 10.859553,-5.934074 10.859555,5.934074 z" /><path
             id="path38-1-2-7"
             clip-path="none"
             style="fill:#ca8a04;stroke:#ca8a04;stroke-width:2.76919;stroke-linejoin:round;stroke-dasharray:none;stroke-dashoffset:4.4"
             d="M 111.62708,65.49347 100.76753,71.427529 89.907975,65.49347 V 53.625325 l 10.859555,-5.934074 10.85955,5.934074 z" /></g></g></g><path
       id="path38-1-2-7-0-2-6-1-8-7-21"
       clip-path="none"
       style="fill:#ffffff;stroke:#334155;stroke-width:3.37378;stroke-linejoin:miter;stroke-dasharray:none;stroke-dashoffset:4.4;stroke-opacity:1"
       d="m 1166.3075,646.45243 -30.3195,16.56758 -30.3194,-16.56758 v -33.13527 l 30.3194,-16.56769 30.3195,16.56769 z" /><path
       id="path38-1-2-7-0-2-6-1-8-7-9-7"
       clip-path="none"
       style="fill:#ffffff;stroke:#334155;stroke-width:3.37378;stroke-linejoin:miter;stroke-dasharray:none;stroke-dashoffset:4.4;stroke-opacity:1"
       d="m 1134.3011,593.96208 -30.3194,16.56758 -30.3194,-16.56758 v -33.13527 l 30.3194,-16.56768 30.3194,16.56768 z" /><path
       id="path38-1-2-7-0-2-6-1-8-7-9-2-8"
       clip-path="none"
       style="fill:#ffffff;stroke:#334155;stroke-width:3.37378;stroke-linejoin:miter;stroke-dasharray:none;stroke-dashoffset:4.4;stroke-opacity:1"
       d="m 1166.3075,541.47173 -30.3195,16.56758 -30.3194,-16.56758 v -33.13537 l 30.3194,-16.56758 30.3195,16.56758 z" /><path
       id="path38-1-2-7-0-2-6-1-8-7-9-2-0-5"
       clip-path="none"
       style="fill:#ffffff;stroke:#334155;stroke-width:3.37378;stroke-linejoin:miter;stroke-dasharray:none;stroke-dashoffset:4.4;stroke-opacity:1"
       d="m 1134.3011,488.98138 -30.3194,16.56749 -30.3194,-16.56749 v -33.13531 l 30.3194,-16.56755 30.3194,16.56755 z" /><path
       id="path38-1-2-7-0-2-6-1-8-7-8-7"
       clip-path="none"
       style="fill:#ffffff;stroke:#334155;stroke-width:3.37378;stroke-linejoin:miter;stroke-dasharray:none;stroke-dashoffset:4.4;stroke-opacity:1"
       d="m 1230.3201,646.45243 -30.3194,16.56758 -30.3194,-16.56758 v -33.13527 l 30.3194,-16.56769 30.3194,16.56769 z" /><path
       id="path38-1-2-7-0-2-6-1-8-7-9-9-4"
       clip-path="none"
       style="fill:#ffffff;stroke:#334155;stroke-width:3.37378;stroke-linejoin:miter;stroke-dasharray:none;stroke-dashoffset:4.4;stroke-opacity:1"
       d="m 1198.3138,593.96208 -30.3194,16.56758 -30.3195,-16.56758 v -33.13527 l 30.3195,-16.56768 30.3194,16.56768 z" /><path
       id="path38-1-2-7-0-2-6-1-8-7-9-2-7-1"
       clip-path="none"
       style="fill:#ffffff;stroke:#334155;stroke-width:3.37378;stroke-linejoin:miter;stroke-dasharray:none;stroke-dashoffset:4.4;stroke-opacity:1"
       d="m 1230.3201,541.47173 -30.3194,16.56758 -30.3194,-16.56758 v -33.13537 l 30.3194,-16.56758 30.3194,16.56758 z" /><path
       id="path38-1-2-7-0-2-6-1-8-7-9-2-0-3-8"
       clip-path="none"
       style="fill:#ffffff;stroke:#334155;stroke-width:3.37378;stroke-linejoin:miter;stroke-dasharray:none;stroke-dashoffset:4.4;stroke-opacity:1"
       d="m 1198.3138,488.98138 -30.3194,16.56749 -30.3195,-16.56749 v -33.13531 l 30.3195,-16.56755 30.3194,16.56755 z" /><path
       id="path38-1-2-7-0-2-6-1-8-7-8-4-3"
       clip-path="none"
       style="fill:#ffffff;stroke:#334155;stroke-width:3.37378;stroke-linejoin:miter;stroke-dasharray:none;stroke-dashoffset:4.4;stroke-opacity:1"
       d="m 1102.2948,646.45243 -30.3193,16.56758 -30.3195,-16.56758 v -33.13527 l 30.3195,-16.56769 30.3193,16.56769 z" /><path
       id="path38-1-2-7-0-2-6-1-8-7-0-1"
       clip-path="none"
       style="fill:#ffffff;stroke:#334155;stroke-width:3.37378;stroke-linejoin:miter;stroke-dasharray:none;stroke-dashoffset:4.4;stroke-opacity:1"
       d="m 1166.3075,436.49106 -30.3195,16.56761 -30.3194,-16.56761 v -33.13534 l 30.3194,-16.56772 30.3195,16.56772 z" /><path
       id="path38-1-2-7-0-2-6-1-8-7-9-3-8"
       clip-path="none"
       style="fill:#ffffff;stroke:#334155;stroke-width:3.37378;stroke-linejoin:miter;stroke-dasharray:none;stroke-dashoffset:4.4;stroke-opacity:1"
       d="m 1134.3011,384.00055 -30.3194,16.56766 -30.3194,-16.56766 v -33.13512 l 30.3194,-16.56772 30.3194,16.56772 z" /><path
       id="path38-1-2-7-0-2-6-1-8-7-9-2-6-9"
       clip-path="none"
       style="fill:#ffffff;stroke:#334155;stroke-width:3.37378;stroke-linejoin:miter;stroke-dasharray:none;stroke-dashoffset:4.4;stroke-opacity:1"
       d="m 1166.3075,331.51025 -30.3195,16.56773 -30.3194,-16.56773 v -33.13527 l 30.3194,-16.56755 30.3195,16.56755 z" /><path
       id="path38-1-2-7-0-2-6-1-8-7-9-2-0-10-6"
       clip-path="none"
       style="fill:#ffffff;stroke:#334155;stroke-width:3.37378;stroke-linejoin:miter;stroke-dasharray:none;stroke-dashoffset:4.4;stroke-opacity:1"
       d="m 1134.3011,279.01998 -30.3194,16.5675 -30.3194,-16.5675 v -33.13527 l 30.3194,-16.56779 30.3194,16.56779 z" /><path
       id="path38-1-2-7-0-2-6-1-8-7-8-2-4"
       clip-path="none"
       style="fill:#ffffff;stroke:#334155;stroke-width:3.37378;stroke-linejoin:miter;stroke-dasharray:none;stroke-dashoffset:4.4;stroke-opacity:1"
       d="m 1230.3201,436.49106 -30.3194,16.56761 -30.3194,-16.56761 v -33.13534 l 30.3194,-16.56772 30.3194,16.56772 z" /><path
       id="path38-1-2-7-0-2-6-1-8-7-9-9-0-3"
       clip-path="none"
       style="fill:#ffffff;stroke:#334155;stroke-width:3.37378;stroke-linejoin:miter;stroke-dasharray:none;stroke-dashoffset:4.4;stroke-opacity:1"
       d="m 1198.3138,384.00055 -30.3194,16.56766 -30.3195,-16.56766 v -33.13512 l 30.3195,-16.56772 30.3194,16.56772 z" /><path
       id="path38-1-2-7-0-2-6-1-8-7-9-2-7-6-3"
       clip-path="none"
       style="fill:#ffffff;stroke:#334155;stroke-width:3.37378;stroke-linejoin:miter;stroke-dasharray:none;stroke-dashoffset:4.4;stroke-opacity:1"
       d="m 1230.3201,331.51025 -30.3194,16.56773 -30.3194,-16.56773 v -33.13527 l 30.3194,-16.56755 30.3194,16.56755 z" /><path
       id="path38-1-2-7-0-2-6-1-8-7-9-2-0-3-1-3"
       clip-path="none"
       style="fill:#ffffff;stroke:#334155;stroke-width:3.37378;stroke-linejoin:miter;stroke-dasharray:none;stroke-dashoffset:4.4;stroke-opacity:1"
       d="m 1198.3138,279.01998 -30.3194,16.5675 -30.3195,-16.5675 v -33.13527 l 30.3195,-16.56779 30.3194,16.56779 z" /><path
       id="path38-1-2-7-0-2-6-1-8-7-2-8"
       clip-path="none"
       style="fill:#ffffff;stroke:#334155;stroke-width:3.37378;stroke-linejoin:miter;stroke-dasharray:none;stroke-dashoffset:4.4;stroke-opacity:1"
       d="m 1166.3075,226.52952 -30.3195,16.56767 -30.3194,-16.56767 v -33.13511 l 30.3194,-16.56772 30.3195,16.56772 z" /><path
       id="path38-1-2-7-0-2-6-1-8-7-9-5-9"
       clip-path="none"
       style="fill:#ffffff;stroke:#334155;stroke-width:3.37378;stroke-linejoin:miter;stroke-dasharray:none;stroke-dashoffset:4.4;stroke-opacity:1"
       d="m 1134.3011,174.03925 -30.3194,16.56766 -30.3194,-16.56766 v -33.13541 l 30.3194,-16.56759 30.3194,16.56759 z" /><path
       id="path38-1-2-7-0-2-6-1-8-7-9-2-4-7"
       clip-path="none"
       style="fill:#ffffff;stroke:#334155;stroke-width:3.37378;stroke-linejoin:miter;stroke-dasharray:none;stroke-dashoffset:4.4;stroke-opacity:1"
       d="m 1166.3075,121.54886 -30.3195,16.56748 -30.3194,-16.56748 V 88.413587 l 30.3194,-16.567584 30.3195,16.567584 z" /><path
       id="path38-1-2-7-0-2-6-1-8-7-9-2-0-7-7"
       clip-path="none"
       style="fill:#ffffff;stroke:#334155;stroke-width:3.37378;stroke-linejoin:miter;stroke-dasharray:none;stroke-dashoffset:4.4;stroke-opacity:1"
       d="M 1134.3011,69.058506 1103.9817,85.62619 1073.6623,69.058506 V 35.923239 l 30.3194,-16.567684 30.3194,16.567684 z" /><path
       id="path38-1-2-7-0-2-6-1-8-7-8-44-6"
       clip-path="none"
       style="fill:#ffffff;stroke:#334155;stroke-width:3.37378;stroke-linejoin:miter;stroke-dasharray:none;stroke-dashoffset:4.4;stroke-opacity:1"
       d="m 1230.3201,226.52952 -30.3194,16.56767 -30.3194,-16.56767 v -33.13511 l 30.3194,-16.56772 30.3194,16.56772 z" /><path
       id="path38-1-2-7-0-2-6-1-8-7-9-9-3-4"
       clip-path="none"
       style="fill:#ffffff;stroke:#334155;stroke-width:3.37378;stroke-linejoin:miter;stroke-dasharray:none;stroke-dashoffset:4.4;stroke-opacity:1"
       d="m 1198.3138,174.03925 -30.3194,16.56766 -30.3195,-16.56766 v -33.13541 l 30.3195,-16.56759 30.3194,16.56759 z" /><path
       id="path38-1-2-7-0-2-6-1-8-7-9-2-7-0-3"
       clip-path="none"
       style="fill:#ffffff;stroke:#334155;stroke-width:3.37378;stroke-linejoin:miter;stroke-dasharray:none;stroke-dashoffset:4.4;stroke-opacity:1"
       d="m 1230.3201,121.54886 -30.3194,16.56748 -30.3194,-16.56748 V 88.413587 l 30.3194,-16.567584 30.3194,16.567584 z" /><path
       id="path38-1-2-7-0-2-6-1-8-7-9-2-0-3-7-0"
       clip-path="none"
       style="fill:#ffffff;stroke:#334155;stroke-width:3.37378;stroke-linejoin:miter;stroke-dasharray:none;stroke-dashoffset:4.4;stroke-opacity:1"
       d="M 1198.3138,69.058506 1167.9944,85.62619 1137.6749,69.058506 V 35.923239 l 30.3195,-16.567684 30.3194,16.567684 z" /><path
       id="path38-1-2-7-0-2-6-1-8-7-0-2-0"
       clip-path="none"
       style="fill:#ffffff;stroke:#334155;stroke-width:3.37378;stroke-linejoin:miter;stroke-dasharray:none;stroke-dashoffset:4.4;stroke-opacity:1"
       d="m 1166.3075,16.568158 -30.3195,16.567584 -30.3194,-16.567584 v -33.135267 l 30.3194,-16.567584 30.3195,16.567584 z" /><path
       id="path38-1-2-7-0-2-6-1-8-7-8-2-9-5"
       clip-path="none"
       style="fill:#ffffff;stroke:#334155;stroke-width:3.37378;stroke-linejoin:miter;stroke-dasharray:none;stroke-dashoffset:4.4;stroke-opacity:1"
       d="m 1230.3201,16.568158 -30.3194,16.567584 -30.3194,-16.567584 v -33.135267 l 30.3194,-16.567584 30.3194,16.567584 z" /><path
       id="path38-1-2-7-0-2-6-1-8-7-8-4-9-4-2"
       clip-path="none"
       style="fill:#ffffff;stroke:#334155;stroke-width:3.37378;stroke-linejoin:miter;stroke-dasharray:none;stroke-dashoffset:4.4;stroke-opacity:1"
       d="m 1102.2948,16.568158 -30.3194,16.567584 -30.3194,-16.567584 v -33.135267 l 30.3194,-16.567584 30.3194,16.567584 z" /><path
       id="path1"
       clip-path="none"
       style="fill:#ffffff;stroke:#334155;stroke-width:3.37378;stroke-linejoin:miter;stroke-dasharray:none;stroke-dashoffset:4.4;stroke-opacity:1"
       d="M 33.6925,646.45243 64.012,663.02001 94.3314,646.45243 V 613.31716 L 64.012,596.74947 33.6925,613.31716 Z" /><path
       id="path2"
       clip-path="none"
       style="fill:#ffffff;stroke:#334155;stroke-width:3.37378;stroke-linejoin:miter;stroke-dasharray:none;stroke-dashoffset:4.4;stroke-opacity:1"
       d="m 65.6989,593.96208 30.3194,16.56758 30.3194,-16.56758 V 560.82681 L 96.0183,544.25913 65.6989,560.82681 Z" /><path
       id="path3"
       clip-path="none"
       style="fill:#ffffff;stroke:#334155;stroke-width:3.37378;stroke-linejoin:miter;stroke-dasharray:none;stroke-dashoffset:4.4;stroke-opacity:1"
       d="M 33.6925,541.47173 64.012,558.03931 94.3314,541.47173 V 508.33636 L 64.012,491.76878 33.6925,508.33636 Z" /><path
       id="path4"
       clip-path="none"
       style="fill:#ffffff;stroke:#334155;stroke-width:3.37378;stroke-linejoin:miter;stroke-dasharray:none;stroke-dashoffset:4.4;stroke-opacity:1"
       d="m 65.6989,488.98138 30.3194,16.56749 30.3194,-16.56749 V 455.84607 L 96.0183,439.27852 65.6989,455.84607 Z" /><path
       id="path5"
       clip-path="none"
       style="fill:#ffffff;stroke:#334155;stroke-width:3.37378;stroke-linejoin:miter;stroke-dasharray:none;stroke-dashoffset:4.4;stroke-opacity:1"
       d="M -30.32011,646.45243 -6.9999393e-4,663.02001 30.3187,646.45243 V 613.31716 L -6.9999393e-4,596.74947 -30.32011,613.31716 Z" /><path
       id="path6"
       clip-path="none"
       style="fill:#ffffff;stroke:#334155;stroke-width:3.37378;stroke-linejoin:miter;stroke-dasharray:none;stroke-dashoffset:4.4;stroke-opacity:1"
       d="m 1.6862,593.96208 30.3194,16.56758 30.3195,-16.56758 V 560.82681 L 32.0056,544.25913 1.6862,560.82681 Z" /><path
       id="path7"
       clip-path="none"
       style="fill:#ffffff;stroke:#334155;stroke-width:3.37378;stroke-linejoin:miter;stroke-dasharray:none;stroke-dashoffset:4.4;stroke-opacity:1"
       d="M -30.32011,541.47173 -6.9999393e-4,558.03931 30.3187,541.47173 V 508.33636 L -6.9999393e-4,491.76878 -30.32011,508.33636 Z" /><path
       id="path8"
       clip-path="none"
       style="fill:#ffffff;stroke:#334155;stroke-width:3.37378;stroke-linejoin:miter;stroke-dasharray:none;stroke-dashoffset:4.4;stroke-opacity:1"
       d="m 1.6862,488.98138 30.3194,16.56749 30.3195,-16.56749 V 455.84607 L 32.0056,439.27852 1.6862,455.84607 Z" /><path
       id="path10"
       clip-path="none"
       style="fill:#ffffff;stroke:#334155;stroke-width:3.37378;stroke-linejoin:miter;stroke-dasharray:none;stroke-dashoffset:4.4;stroke-opacity:1"
       d="m 97.7052,646.45243 30.3193,16.56758 30.3195,-16.56758 v -33.13527 l -30.3195,-16.56769 -30.3193,16.56769 z" /><path
       id="path14"
       clip-path="none"
       style="fill:#ffffff;stroke:#334155;stroke-width:3.37378;stroke-linejoin:miter;stroke-dasharray:none;stroke-dashoffset:4.4;stroke-opacity:1"
       d="M 33.6925,436.49106 64.012,453.05867 94.3314,436.49106 V 403.35572 L 64.012,386.788 33.6925,403.35572 Z" /><path
       id="path15"
       clip-path="none"
       style="fill:#ffffff;stroke:#334155;stroke-width:3.37378;stroke-linejoin:miter;stroke-dasharray:none;stroke-dashoffset:4.4;stroke-opacity:1"
       d="m 65.6989,384.00055 30.3194,16.56766 30.3194,-16.56766 V 350.86543 L 96.0183,334.29771 65.6989,350.86543 Z" /><path
       id="path16"
       clip-path="none"
       style="fill:#ffffff;stroke:#334155;stroke-width:3.37378;stroke-linejoin:miter;stroke-dasharray:none;stroke-dashoffset:4.4;stroke-opacity:1"
       d="M 33.6925,331.51025 64.012,348.07798 94.3314,331.51025 V 298.37498 L 64.012,281.80743 33.6925,298.37498 Z" /><path
       id="path17"
       clip-path="none"
       style="fill:#ffffff;stroke:#334155;stroke-width:3.37378;stroke-linejoin:miter;stroke-dasharray:none;stroke-dashoffset:4.4;stroke-opacity:1"
       d="m 65.6989,279.01998 30.3194,16.5675 30.3194,-16.5675 V 245.88471 L 96.0183,229.31692 65.6989,245.88471 Z" /><path
       id="path18"
       clip-path="none"
       style="fill:#ffffff;stroke:#334155;stroke-width:3.37378;stroke-linejoin:miter;stroke-dasharray:none;stroke-dashoffset:4.4;stroke-opacity:1"
       d="M -30.32011,436.49106 -6.9999393e-4,453.05867 30.3187,436.49106 V 403.35572 L -6.9999393e-4,386.788 -30.32011,403.35572 Z" /><path
       id="path19"
       clip-path="none"
       style="fill:#ffffff;stroke:#334155;stroke-width:3.37378;stroke-linejoin:miter;stroke-dasharray:none;stroke-dashoffset:4.4;stroke-opacity:1"
       d="m 1.6862,384.00055 30.3194,16.56766 30.3195,-16.56766 V 350.86543 L 32.0056,334.29771 1.6862,350.86543 Z" /><path
       id="path20"
       clip-path="none"
       style="fill:#ffffff;stroke:#334155;stroke-width:3.37378;stroke-linejoin:miter;stroke-dasharray:none;stroke-dashoffset:4.4;stroke-opacity:1"
       d="M -30.32011,331.51025 -6.9999393e-4,348.07798 30.3187,331.51025 V 298.37498 L -6.9999393e-4,281.80743 -30.32011,298.37498 Z" /><path
       id="path21"
       clip-path="none"
       style="fill:#ffffff;stroke:#334155;stroke-width:3.37378;stroke-linejoin:miter;stroke-dasharray:none;stroke-dashoffset:4.4;stroke-opacity:1"
       d="m 1.6862,279.01998 30.3194,16.5675 30.3195,-16.5675 V 245.88471 L 32.0056,229.31692 1.6862,245.88471 Z" /><path
       id="path26"
       clip-path="none"
       style="fill:#ffffff;stroke:#334155;stroke-width:3.37378;stroke-linejoin:miter;stroke-dasharray:none;stroke-dashoffset:4.4;stroke-opacity:1"
       d="M 33.6925,226.52952 64.012,243.09719 94.3314,226.52952 V 193.39441 L 64.012,176.82669 33.6925,193.39441 Z" /><path
       id="path27"
       clip-path="none"
       style="fill:#ffffff;stroke:#334155;stroke-width:3.37378;stroke-linejoin:miter;stroke-dasharray:none;stroke-dashoffset:4.4;stroke-opacity:1"
       d="m 65.6989,174.03925 30.3194,16.56766 30.3194,-16.56766 V 140.90384 L 96.0183,124.33625 65.6989,140.90384 Z" /><path
       id="path28"
       clip-path="none"
       style="fill:#ffffff;stroke:#334155;stroke-width:3.37378;stroke-linejoin:miter;stroke-dasharray:none;stroke-dashoffset:4.4;stroke-opacity:1"
       d="M 33.6925,121.54886 64.012,138.11634 94.3314,121.54886 V 88.413587 L 64.012,71.846003 33.6925,88.413587 Z" /><path
       id="path29"
       clip-path="none"
       style="fill:#ffffff;stroke:#334155;stroke-width:3.37378;stroke-linejoin:miter;stroke-dasharray:none;stroke-dashoffset:4.4;stroke-opacity:1"
       d="M 65.6989,69.058506 96.0183,85.62619 126.3377,69.058506 V 35.923239 L 96.0183,19.355555 65.6989,35.923239 Z" /><path
       id="path30"
       clip-path="none"
       style="fill:#ffffff;stroke:#334155;stroke-width:3.37378;stroke-linejoin:miter;stroke-dasharray:none;stroke-dashoffset:4.4;stroke-opacity:1"
       d="M -30.32011,226.52952 -6.9999393e-4,243.09719 30.3187,226.52952 V 193.39441 L -6.9999393e-4,176.82669 -30.32011,193.39441 Z" /><path
       id="path31"
       clip-path="none"
       style="fill:#ffffff;stroke:#334155;stroke-width:3.37378;stroke-linejoin:miter;stroke-dasharray:none;stroke-dashoffset:4.4;stroke-opacity:1"
       d="m 1.6862,174.03925 30.3194,16.56766 30.3195,-16.56766 V 140.90384 L 32.0056,124.33625 1.6862,140.90384 Z" /><path
       id="path32"
       clip-path="none"
       style="fill:#ffffff;stroke:#334155;stroke-width:3.37378;stroke-linejoin:miter;stroke-dasharray:none;stroke-dashoffset:4.4;stroke-opacity:1"
       d="M -30.32011,121.54886 -6.9999393e-4,138.11634 30.3187,121.54886 V 88.413587 L -6.9999393e-4,71.846003 -30.32011,88.413587 Z" /><path
       id="path33"
       clip-path="none"
       style="fill:#ffffff;stroke:#334155;stroke-width:3.37378;stroke-linejoin:miter;stroke-dasharray:none;stroke-dashoffset:4.4;stroke-opacity:1"
       d="M 1.6862,69.058506 32.0056,85.62619 62.3251,69.058506 V 35.923239 L 32.0056,19.355555 1.6862,35.923239 Z" /><path
       id="path38"
       clip-path="none"
       style="fill:#ffffff;stroke:#334155;stroke-width:3.37378;stroke-linejoin:miter;stroke-dasharray:none;stroke-dashoffset:4.4;stroke-opacity:1"
       d="M 33.6925,16.568158 64.012,33.135742 94.3314,16.568158 V -16.567109 L 64.012,-33.134693 33.6925,-16.567109 Z" /><path
       id="path39"
       clip-path="none"
       style="fill:#ffffff;stroke:#334155;stroke-width:3.37378;stroke-linejoin:miter;stroke-dasharray:none;stroke-dashoffset:4.4;stroke-opacity:1"
       d="M -30.32011,16.568158 -6.9999393e-4,33.135742 30.3187,16.568158 V -16.567109 L -6.9999393e-4,-33.134693 -30.32011,-16.567109 Z" /><path
       id="path41"
       clip-path="none"
       style="fill:#ffffff;stroke:#334155;stroke-width:3.37378;stroke-linejoin:miter;stroke-dasharray:none;stroke-dashoffset:4.4;stroke-opacity:1"
       d="M 97.7052,16.568158 128.0246,33.135742 158.344,16.568158 V -16.567109 L 128.0246,-33.134693 97.7052,-16.567109 Z" /></g><style
     type="text/css"
     id="style1731">&#10;	.st0{fill:#3f3f46;}&#10;	.st1{fill:#3f3f46;}&#10;</style></svg>
