<svg width="128" height="128" viewBox="0 0 128 128" fill="none" xmlns="http://www.w3.org/2000/svg">
<g clip-path="url(#clip0_390_295)">
<rect x="-25.5" y="69.5" width="45" height="45" rx="6.5" fill="white" stroke="#A1A1AA" stroke-width="3"/>
<rect x="19.5" y="69.5" width="45" height="45" rx="6.5" fill="white" stroke="#A1A1AA" stroke-width="3"/>
<rect x="64.5" y="69.5" width="45" height="45" rx="6.5" fill="white" stroke="#A1A1AA" stroke-width="3"/>
<rect x="-17.8491" y="79.979" width="4" height="38" rx="2" transform="rotate(-45 -17.8491 79.979)" fill="#A1A1AA"/>
<rect x="-22" y="94" width="4" height="38" rx="2" transform="rotate(-90 -22 94)" fill="#A1A1AA"/>
<rect x="-15.0208" y="106.849" width="4" height="38" rx="2" transform="rotate(-135 -15.0208 106.849)" fill="#A1A1AA"/>
<rect x="109.5" y="69.5" width="45" height="45" rx="6.5" fill="white" stroke="#A1A1AA" stroke-width="3"/>
<rect x="40" y="73" width="4" height="38" rx="2" fill="#A1A1AA"/>
<rect x="27.1509" y="79.979" width="4" height="38" rx="2" transform="rotate(-45 27.1509 79.979)" fill="#A1A1AA"/>
<rect x="23" y="94" width="4" height="38" rx="2" transform="rotate(-90 23 94)" fill="#A1A1AA"/>
<rect x="29.9792" y="106.849" width="4" height="38" rx="2" transform="rotate(-135 29.9792 106.849)" fill="#A1A1AA"/>
<rect x="85" y="73" width="4" height="38" rx="2" fill="#A1A1AA"/>
<rect x="72.1509" y="79.979" width="4" height="38" rx="2" transform="rotate(-45 72.1509 79.979)" fill="#A1A1AA"/>
<rect x="74.9792" y="106.849" width="4" height="38" rx="2" transform="rotate(-135 74.9792 106.849)" fill="#A1A1AA"/>
<rect x="-25.5" y="13.5" width="45" height="45" rx="6.5" fill="white" stroke="#A1A1AA" stroke-width="3"/>
<rect x="19.5" y="13.5" width="45" height="45" rx="6.5" fill="white" stroke="#A1A1AA" stroke-width="3"/>
<rect x="64.5" y="13.5" width="45" height="45" rx="6.5" fill="white" stroke="#A1A1AA" stroke-width="3"/>
<rect x="-17.8491" y="23.979" width="4" height="38" rx="2" transform="rotate(-45 -17.8491 23.979)" fill="#A1A1AA"/>
<rect x="-22" y="38" width="4" height="38" rx="2" transform="rotate(-90 -22 38)" fill="#A1A1AA"/>
<rect x="-15.0208" y="50.8491" width="4" height="38" rx="2" transform="rotate(-135 -15.0208 50.8491)" fill="#A1A1AA"/>
<rect x="109.5" y="13.5" width="45" height="45" rx="6.5" fill="white" stroke="#A1A1AA" stroke-width="3"/>
<rect x="40" y="17" width="4" height="38" rx="2" fill="#A1A1AA"/>
<rect x="27.1509" y="23.979" width="4" height="38" rx="2" transform="rotate(-45 27.1509 23.979)" fill="#A1A1AA"/>
<rect x="23" y="38" width="4" height="38" rx="2" transform="rotate(-90 23 38)" fill="#A1A1AA"/>
<rect x="29.9792" y="50.8491" width="4" height="38" rx="2" transform="rotate(-135 29.9792 50.8491)" fill="#A1A1AA"/>
<rect x="85" y="17" width="4" height="38" rx="2" fill="#A1A1AA"/>
<rect x="72.1509" y="23.979" width="4" height="38" rx="2" transform="rotate(-45 72.1509 23.979)" fill="#A1A1AA"/>
<rect x="68" y="38" width="4" height="38" rx="2" transform="rotate(-90 68 38)" fill="#A1A1AA"/>
<rect x="74.9792" y="50.8491" width="4" height="38" rx="2" transform="rotate(-135 74.9792 50.8491)" fill="#A1A1AA"/>
<rect x="117.151" y="23.979" width="4" height="38" rx="2" transform="rotate(-45 117.151 23.979)" fill="#A1A1AA"/>
</g>
<defs>
<clipPath id="clip0_390_295">
<rect width="128" height="128" fill="white"/>
</clipPath>
</defs>
</svg>
