<?xml version="1.0" encoding="UTF-8" standalone="no"?>
<!-- Created with Inkscape (http://www.inkscape.org/) -->

<svg
   width="32"
   height="32"
   viewBox="0 0 32 32"
   version="1.1"
   id="svg1"
   xmlns="http://www.w3.org/2000/svg"
   xmlns:svg="http://www.w3.org/2000/svg">
  <defs
     id="defs1" />
  <g
     id="layer1">
    <path
       style="fill:#000000;fill-opacity:1;stroke:none;stroke-width:1.84086;stroke-linejoin:round;stroke-dasharray:none;stroke-opacity:1"
       id="path1"
       d="M 22.123318,15.081002 9.8694724,22.155763 -2.3843729,15.081002 -2.3843728,0.93147988 9.8694726,-6.143281 22.123318,0.93147998 Z"
       transform="matrix(0.32642814,0,0,0.32642814,11.461014,-1.9946602)" />
    <path
       style="fill:#000000;fill-opacity:1;stroke:none;stroke-width:1.84086;stroke-linejoin:round;stroke-dasharray:none;stroke-opacity:1"
       id="path1-4-3"
       d="M 22.123318,15.081002 9.8694724,22.155763 -2.3843729,15.081002 -2.3843728,0.93147988 9.8694726,-6.143281 22.123318,0.93147998 Z"
       transform="matrix(0.32642814,0,0,0.32644213,15.789427,5.5153181)" />
    <path
       style="fill:#000000;fill-opacity:1;stroke:none;stroke-width:1.84086;stroke-linejoin:round;stroke-dasharray:none;stroke-opacity:1"
       id="path1-4-3-4"
       d="M 22.123318,15.081002 9.8694724,22.155763 -2.3843729,15.081002 -2.3843728,0.93147988 9.8694726,-6.143281 22.123318,0.93147998 Z"
       transform="matrix(0.32642814,0,0,0.32644213,20.117427,13.025318)" />
    <path
       style="fill:#000000;fill-opacity:1;stroke:none;stroke-width:1.84086;stroke-linejoin:round;stroke-dasharray:none;stroke-opacity:1"
       id="path1-4-3-2"
       d="M 22.123318,15.081002 9.8694724,22.155763 -2.3843729,15.081002 -2.3843728,0.93147988 9.8694726,-6.143281 22.123318,0.93147998 Z"
       transform="matrix(0.32642814,0,0,0.32644213,24.455347,5.5154257)" />
    <path
       style="fill:#000000;fill-opacity:1;stroke:none;stroke-width:1.84086;stroke-linejoin:round;stroke-dasharray:none;stroke-opacity:1"
       id="path1-4-3-3"
       d="M 22.123318,15.081002 9.8694724,22.155763 -2.3843729,15.081002 -2.3843728,0.93147988 9.8694726,-6.143281 22.123318,0.93147998 Z"
       transform="matrix(0.32642814,0,0,0.32644213,2.8283264,-1.9945743)" />
    <path
       style="fill:#000000;fill-opacity:1;stroke:none;stroke-width:1.84086;stroke-linejoin:round;stroke-dasharray:none;stroke-opacity:1"
       id="path1-4-3-4-2"
       d="M 22.123318,15.081002 9.8694724,22.155763 -2.3843729,15.081002 -2.3843728,0.93147988 9.8694726,-6.143281 22.123318,0.93147998 Z"
       transform="matrix(0.32642814,0,0,0.32644213,7.1563264,5.5154257)" />
    <path
       style="fill:#000000;fill-opacity:1;stroke:none;stroke-width:1.84086;stroke-linejoin:round;stroke-dasharray:none;stroke-opacity:1"
       id="path1-4-3-4-1"
       d="M 22.123318,15.081002 9.8694724,22.155763 -2.3843729,15.081002 -2.3843728,0.93147988 9.8694726,-6.143281 22.123318,0.93147998 Z"
       transform="matrix(0.32642814,0,0,0.32644213,28.783347,13.025426)" />
  </g>
</svg>
